<svg width="363" height="393" viewBox="0 0 363 393" fill="none" xmlns="http://www.w3.org/2000/svg">
<g filter="url(#filter0_f_388_234)">
<circle cx="322" cy="89.3564" r="20.5" fill="#FA4A0C" fill-opacity="0.5"/>
</g>
<circle cx="321.5" cy="89.8564" r="22" fill="white"/>
<path d="M330.314 81.5454C330.125 81.3569 329.89 81.2221 329.632 81.1549C329.374 81.0877 329.103 81.0904 328.846 81.1629H328.832L310.838 86.6229C310.545 86.7071 310.286 86.8781 310.093 87.1132C309.9 87.3483 309.783 87.6364 309.758 87.9394C309.733 88.2423 309.8 88.5458 309.951 88.8097C310.102 89.0735 310.33 89.2852 310.604 89.4167L318.565 93.2942L322.437 101.251C322.558 101.508 322.749 101.725 322.989 101.877C323.229 102.028 323.507 102.108 323.791 102.107C323.834 102.107 323.877 102.105 323.92 102.101C324.223 102.077 324.511 101.96 324.746 101.767C324.98 101.574 325.15 101.314 325.233 101.022L330.689 83.0276C330.689 83.0229 330.689 83.0183 330.689 83.0136C330.763 82.7576 330.767 82.4867 330.701 82.2287C330.635 81.9707 330.501 81.7348 330.314 81.5454ZM323.799 100.593L323.795 100.606V100.599L320.039 92.8836L324.539 88.3836C324.674 88.2418 324.748 88.053 324.745 87.8574C324.743 87.6618 324.664 87.475 324.526 87.3367C324.387 87.1984 324.201 87.1196 324.005 87.1171C323.809 87.1145 323.621 87.1885 323.479 87.3233L318.979 91.8233L311.26 88.0676H311.254H311.267L329.253 82.6067L323.799 100.593Z" fill="#FA4A0C"/>
<path d="M233 379.856L233.281 374.09L228.146 376.73L233 379.856ZM35.6492 94.5012L35.5878 94.0049L35.6492 94.5012ZM10.407 72.994L10.8947 72.884L10.407 72.994ZM186.5 0.356445L186.15 -0.000195712C183.974 2.13726 181.817 4.22929 179.677 6.27676L180.022 6.63804L180.368 6.99931C182.511 4.94875 184.672 2.85362 186.85 0.713086L186.5 0.356445ZM166.801 18.9328L166.466 18.5617C161.847 22.7317 157.319 26.6879 152.882 30.4399L153.204 30.8217L153.527 31.2035C157.973 27.4444 162.51 23.481 167.136 19.3039L166.801 18.9328ZM139.219 42.2225L138.911 41.8291C133.982 45.6956 129.179 49.2999 124.505 52.6573L124.796 53.0634L125.088 53.4695C129.774 50.1036 134.588 46.4908 139.528 42.6159L139.219 42.2225ZM109.902 63.2288L109.63 62.8088C104.298 66.2533 99.1591 69.3579 94.2186 72.1501L94.4646 72.5854L94.7106 73.0207C99.6689 70.2184 104.824 67.1035 110.173 63.6488L109.902 63.2288ZM78.4624 80.9042L78.2487 80.4522C72.3675 83.2326 66.8358 85.5291 61.6634 87.4033L61.8338 87.8734L62.0041 88.3435C67.2077 86.458 72.7683 84.1493 78.6761 81.3562L78.4624 80.9042ZM44.5343 92.9613L44.4272 92.4729C41.2784 93.1631 38.3306 93.6656 35.5878 94.0049L35.6492 94.5012L35.7106 94.9974C38.486 94.654 41.4643 94.1461 44.6413 93.4497L44.5343 92.9613ZM35.6492 94.5012L35.5878 94.0049C32.4343 94.3951 29.4959 94.0484 26.8172 93.1186L26.6532 93.5909L26.4893 94.0632C29.3133 95.0436 32.406 95.4062 35.7106 94.9974L35.6492 94.5012ZM13.5345 81.5355L13.9766 81.302C12.6085 78.711 11.5663 75.8615 10.8947 72.884L10.407 72.994L9.91922 73.104C10.6093 76.1636 11.6812 79.0965 13.0923 81.7689L13.5345 81.5355ZM10.407 72.994L10.8947 72.884L10.1969 69.7903L9.70915 69.9004L9.22141 70.0104L9.91922 73.104L10.407 72.994ZM8.31354 63.7131L8.80128 63.6031L8.10347 60.5095L7.61573 60.6195L7.12798 60.7295L7.82579 63.8231L8.31354 63.7131ZM7.61573 60.6195L8.10347 60.5095C7.16679 56.3569 7.23053 52.2563 8.11466 48.4296L7.62749 48.3171L7.14033 48.2045C6.223 52.1749 6.15763 56.4276 7.12798 60.7295L7.61573 60.6195ZM22.613 29.5749L22.83 30.0254C26.3683 28.3209 30.3544 27.3564 34.6113 27.3564V26.8564V26.3564C30.2014 26.3564 26.0672 27.356 22.396 29.1244L22.613 29.5749ZM34.6113 26.8564V27.3564C37.134 27.3564 39.6041 27.7058 41.9636 28.3691L42.0989 27.8878L42.2342 27.4064C39.7877 26.7187 37.2266 26.3564 34.6113 26.3564V26.8564ZM54.8816 35.6887L54.5154 36.0291C56.1842 37.8242 57.6243 39.8612 58.7779 42.1047L59.2226 41.8761L59.6672 41.6474C58.4714 39.3216 56.9781 37.2096 55.2478 35.3483L54.8816 35.6887ZM59.2226 41.8761L58.7779 42.1047L63.1223 50.5542L63.567 50.3256L64.0117 50.097L59.6672 41.6474L59.2226 41.8761ZM72.2559 67.2246L71.8112 67.4532L80.5001 84.3522L80.9447 84.1236L81.3894 83.895L72.7005 66.996L72.2559 67.2246ZM89.6336 101.023L89.1889 101.251L97.8778 118.15L98.3225 117.922L98.7672 117.693L90.0783 100.794L89.6336 101.023ZM107.011 134.821L106.567 135.049L115.256 151.948L115.7 151.72L116.145 151.491L107.456 134.592L107.011 134.821ZM124.389 168.619L123.944 168.847L132.633 185.746L133.078 185.518L133.523 185.289L124.834 168.39L124.389 168.619ZM141.767 202.417L141.322 202.645L150.011 219.544L150.456 219.316L150.9 219.087L142.212 202.188L141.767 202.417ZM159.145 236.215L158.7 236.443L167.389 253.342L167.833 253.114L168.278 252.885L159.589 235.986L159.145 236.215ZM176.522 270.013L176.078 270.241L184.767 287.14L185.211 286.912L185.656 286.683L176.967 269.784L176.522 270.013ZM193.9 303.811L193.455 304.039L202.144 320.938L202.589 320.71L203.034 320.481L194.345 303.582L193.9 303.811ZM211.278 337.609L210.833 337.837L219.522 354.736L219.967 354.508L220.411 354.279L211.722 337.38L211.278 337.609ZM228.656 371.407L228.211 371.635L230.498 376.083L230.942 375.854L231.387 375.626L229.1 371.178L228.656 371.407Z" fill="#FA4A0C"/>
<path d="M239.024 387.208L221.333 375.836L237.777 366.214L239.024 387.208Z" fill="#FA4A0C"/>
<defs>
<filter id="filter0_f_388_234" x="281.5" y="48.8564" width="81" height="81" filterUnits="userSpaceOnUse" color-interpolation-filters="sRGB">
<feFlood flood-opacity="0" result="BackgroundImageFix"/>
<feBlend mode="normal" in="SourceGraphic" in2="BackgroundImageFix" result="shape"/>
<feGaussianBlur stdDeviation="10" result="effect1_foregroundBlur_388_234"/>
</filter>
</defs>
</svg>
