<svg width="437" height="433" viewBox="0 0 437 433" fill="none" xmlns="http://www.w3.org/2000/svg">
<path d="M49.8447 310.051L38.133 281.295L210.832 229.501L211.774 228.976L49.8447 310.051Z" fill="url(#paint0_linear_388_682)"/>
<path d="M83.7791 373.113L63.1272 349.92L226.404 225.014L227.223 224.095L83.7791 373.113Z" fill="url(#paint1_linear_388_682)"/>
<path d="M143.005 421.114L115.798 406.125L240.699 205.737L241.24 204.429L143.005 421.114Z" fill="url(#paint2_linear_388_682)"/>
<path d="M244.875 432.559L213.827 431.599L233.809 196.319L233.696 194.908L244.875 432.559Z" fill="url(#paint3_linear_388_682)"/>
<path d="M340.787 396.372L312.706 409.652L223.388 191.07L222.644 189.865L340.787 396.372Z" fill="url(#paint4_linear_388_682)"/>
<path d="M409.711 320.49L390.754 345.098L211.721 191.141L210.51 190.407L409.711 320.49Z" fill="url(#paint5_linear_388_682)"/>
<path d="M436.532 221.551L430.856 252.09L201.363 196.516L199.951 196.414L436.532 221.551Z" fill="url(#paint6_linear_388_682)"/>
<path d="M415.372 121.248L424.221 151.024L194.588 206.017L193.284 206.569L415.372 121.248Z" fill="url(#paint7_linear_388_682)"/>
<path d="M350.869 41.5742L372.302 64.0572L192.88 217.56L191.97 218.645L350.869 41.5742Z" fill="url(#paint8_linear_388_682)"/>
<path d="M257.167 0L286.486 10.2605L196.615 228.615L196.299 229.995L257.167 0Z" fill="url(#paint9_linear_388_682)"/>
<path d="M154.811 5.64062L185.587 1.42886L204.974 236.758L205.32 238.13L154.811 5.64062Z" fill="url(#paint10_linear_388_682)"/>
<path d="M66.2455 57.2598L91.672 39.4236L206.348 227.446L207.223 228.434L66.2455 57.2598Z" fill="url(#paint11_linear_388_682)"/>
<path d="M10.8882 143.538L25.4011 116.079L212.059 230.787L213.282 231.265L10.8882 143.538Z" fill="url(#paint12_linear_388_682)"/>
<path d="M0.877686 243.469L1.23441 212.415L208.815 229.879L210.057 229.75L0.877686 243.469Z" fill="url(#paint13_linear_388_682)"/>
<defs>
<linearGradient id="paint0_linear_388_682" x1="43.5021" y1="295.891" x2="208.618" y2="221.931" gradientUnits="userSpaceOnUse">
<stop offset="0.126969" stop-color="white" stop-opacity="0.2"/>
<stop offset="0.408788" stop-color="#FA4A0C" stop-opacity="0.1"/>
<stop offset="0.609624" stop-color="#FF9F0A" stop-opacity="0.12"/>
<stop offset="0.713281" stop-color="#FF9F0A" stop-opacity="0.1"/>
</linearGradient>
<linearGradient id="paint1_linear_388_682" x1="73.0143" y1="361.94" x2="221.867" y2="218.535" gradientUnits="userSpaceOnUse">
<stop offset="0.126969" stop-color="white" stop-opacity="0.2"/>
<stop offset="0.408788" stop-color="#FA4A0C" stop-opacity="0.1"/>
<stop offset="0.609624" stop-color="#FF9F0A" stop-opacity="0.12"/>
<stop offset="0.713281" stop-color="#FF9F0A" stop-opacity="0.1"/>
</linearGradient>
<linearGradient id="paint2_linear_388_682" x1="129.092" y1="414.248" x2="234.317" y2="201.013" gradientUnits="userSpaceOnUse">
<stop offset="0.126969" stop-color="white" stop-opacity="0.2"/>
<stop offset="0.408788" stop-color="#FA4A0C" stop-opacity="0.1"/>
<stop offset="0.609624" stop-color="#FF9F0A" stop-opacity="0.12"/>
<stop offset="0.713281" stop-color="#FF9F0A" stop-opacity="0.1"/>
</linearGradient>
<linearGradient id="paint3_linear_388_682" x1="229.361" y1="432.779" x2="225.977" y2="195.018" gradientUnits="userSpaceOnUse">
<stop offset="0.126969" stop-color="white" stop-opacity="0.2"/>
<stop offset="0.408788" stop-color="#FA4A0C" stop-opacity="0.1"/>
<stop offset="0.609624" stop-color="#FF9F0A" stop-opacity="0.12"/>
<stop offset="0.713281" stop-color="#FF9F0A" stop-opacity="0.1"/>
</linearGradient>
<linearGradient id="paint4_linear_388_682" x1="327.074" y1="403.631" x2="215.821" y2="193.477" gradientUnits="userSpaceOnUse">
<stop offset="0.126969" stop-color="white" stop-opacity="0.2"/>
<stop offset="0.408788" stop-color="#FA4A0C" stop-opacity="0.1"/>
<stop offset="0.609624" stop-color="#FF9F0A" stop-opacity="0.12"/>
<stop offset="0.713281" stop-color="#FF9F0A" stop-opacity="0.1"/>
</linearGradient>
<linearGradient id="paint5_linear_388_682" x1="400.806" y1="333.196" x2="206.08" y2="196.729" gradientUnits="userSpaceOnUse">
<stop offset="0.126969" stop-color="white" stop-opacity="0.2"/>
<stop offset="0.408788" stop-color="#FA4A0C" stop-opacity="0.1"/>
<stop offset="0.609624" stop-color="#FF9F0A" stop-opacity="0.12"/>
<stop offset="0.713281" stop-color="#FF9F0A" stop-opacity="0.1"/>
</linearGradient>
<linearGradient id="paint6_linear_388_682" x1="434.388" y1="236.917" x2="198.884" y2="204.059" gradientUnits="userSpaceOnUse">
<stop offset="0.126969" stop-color="white" stop-opacity="0.2"/>
<stop offset="0.408788" stop-color="#FA4A0C" stop-opacity="0.1"/>
<stop offset="0.609624" stop-color="#FF9F0A" stop-opacity="0.12"/>
<stop offset="0.713281" stop-color="#FF9F0A" stop-opacity="0.1"/>
</linearGradient>
<linearGradient id="paint7_linear_388_682" x1="420.459" y1="135.906" x2="195.815" y2="213.862" gradientUnits="userSpaceOnUse">
<stop offset="0.126969" stop-color="white" stop-opacity="0.2"/>
<stop offset="0.408788" stop-color="#FA4A0C" stop-opacity="0.1"/>
<stop offset="0.609624" stop-color="#FF9F0A" stop-opacity="0.12"/>
<stop offset="0.713281" stop-color="#FF9F0A" stop-opacity="0.1"/>
</linearGradient>
<linearGradient id="paint8_linear_388_682" x1="362.07" y1="52.3096" x2="197.544" y2="223.986" gradientUnits="userSpaceOnUse">
<stop offset="0.126969" stop-color="white" stop-opacity="0.2"/>
<stop offset="0.408788" stop-color="#FA4A0C" stop-opacity="0.1"/>
<stop offset="0.609624" stop-color="#FF9F0A" stop-opacity="0.12"/>
<stop offset="0.713281" stop-color="#FF9F0A" stop-opacity="0.1"/>
</linearGradient>
<linearGradient id="paint9_linear_388_682" x1="272.028" y1="4.45885" x2="203.693" y2="232.214" gradientUnits="userSpaceOnUse">
<stop offset="0.126969" stop-color="white" stop-opacity="0.2"/>
<stop offset="0.408788" stop-color="#FA4A0C" stop-opacity="0.1"/>
<stop offset="0.609624" stop-color="#FF9F0A" stop-opacity="0.12"/>
<stop offset="0.713281" stop-color="#FF9F0A" stop-opacity="0.1"/>
</linearGradient>
<linearGradient id="paint10_linear_388_682" x1="170.073" y1="2.84526" x2="212.914" y2="236.74" gradientUnits="userSpaceOnUse">
<stop offset="0.126969" stop-color="white" stop-opacity="0.2"/>
<stop offset="0.408788" stop-color="#FA4A0C" stop-opacity="0.1"/>
<stop offset="0.609624" stop-color="#FF9F0A" stop-opacity="0.12"/>
<stop offset="0.713281" stop-color="#FF9F0A" stop-opacity="0.1"/>
</linearGradient>
<linearGradient id="paint11_linear_388_682" x1="78.5614" y1="47.8231" x2="213.351" y2="223.738" gradientUnits="userSpaceOnUse">
<stop offset="0.126969" stop-color="white" stop-opacity="0.2"/>
<stop offset="0.408788" stop-color="#FA4A0C" stop-opacity="0.1"/>
<stop offset="0.609624" stop-color="#FF9F0A" stop-opacity="0.12"/>
<stop offset="0.713281" stop-color="#FF9F0A" stop-opacity="0.1"/>
</linearGradient>
<linearGradient id="paint12_linear_388_682" x1="17.5579" y1="129.529" x2="216.6" y2="224.295" gradientUnits="userSpaceOnUse">
<stop offset="0.126969" stop-color="white" stop-opacity="0.2"/>
<stop offset="0.408788" stop-color="#FA4A0C" stop-opacity="0.1"/>
<stop offset="0.609624" stop-color="#FF9F0A" stop-opacity="0.12"/>
<stop offset="0.713281" stop-color="#FF9F0A" stop-opacity="0.1"/>
</linearGradient>
<linearGradient id="paint13_linear_388_682" x1="0.438771" y1="227.959" x2="209.838" y2="222.033" gradientUnits="userSpaceOnUse">
<stop offset="0.126969" stop-color="white" stop-opacity="0.2"/>
<stop offset="0.408788" stop-color="#FA4A0C" stop-opacity="0.1"/>
<stop offset="0.609624" stop-color="#FF9F0A" stop-opacity="0.12"/>
<stop offset="0.713281" stop-color="#FF9F0A" stop-opacity="0.1"/>
</linearGradient>
</defs>
</svg>
